<?xml version="1.0" encoding="UTF-8" standalone="no"?>
<!-- Created with Inkscape (http://www.inkscape.org/) -->

<svg
   width="99.597504mm"
   height="32.01561mm"
   viewBox="0 0 99.597504 32.01561"
   version="1.1"
   id="svg5"
   inkscape:version="1.1 (c68e22c387, 2021-05-23)"
   sodipodi:docname="dashtime_logo.svg"
   inkscape:export-filename="C:\Users\flori\Documents\Cours_TSE\FISE_3\advanced_database\2021bddra-dashtime-dashboard\static\dashtime_logo.png"
   inkscape:export-xdpi="255.02646"
   inkscape:export-ydpi="255.02646"
   xmlns:inkscape="http://www.inkscape.org/namespaces/inkscape"
   xmlns:sodipodi="http://sodipodi.sourceforge.net/DTD/sodipodi-0.dtd"
   xmlns:xlink="http://www.w3.org/1999/xlink"
   xmlns="http://www.w3.org/2000/svg"
   xmlns:svg="http://www.w3.org/2000/svg">
  <sodipodi:namedview
     id="namedview7"
     pagecolor="#2a2a2a"
     bordercolor="#666666"
     borderopacity="1.0"
     inkscape:pageshadow="2"
     inkscape:pageopacity="0"
     inkscape:pagecheckerboard="true"
     inkscape:document-units="mm"
     showgrid="false"
     inkscape:zoom="2.56"
     inkscape:cx="167.57813"
     inkscape:cy="68.945313"
     inkscape:window-width="1920"
     inkscape:window-height="991"
     inkscape:window-x="-9"
     inkscape:window-y="-9"
     inkscape:window-maximized="1"
     inkscape:current-layer="layer1"
     fit-margin-top="0"
     fit-margin-left="0"
     fit-margin-right="0"
     fit-margin-bottom="0" />
  <defs
     id="defs2">
    <linearGradient
       inkscape:collect="always"
       id="linearGradient5815">
      <stop
         style="stop-color:#111111;stop-opacity:1"
         offset="0"
         id="stop5811" />
      <stop
         style="stop-color:#029d9d;stop-opacity:1"
         offset="1"
         id="stop5813" />
    </linearGradient>
    <linearGradient
       inkscape:collect="always"
       xlink:href="#linearGradient5815"
       id="linearGradient5817"
       x1="-206.09961"
       y1="116.19655"
       x2="-112.30167"
       y2="116.19655"
       gradientUnits="userSpaceOnUse" />
    <linearGradient
       inkscape:collect="always"
       xlink:href="#linearGradient5815"
       id="linearGradient5914"
       gradientUnits="userSpaceOnUse"
       x1="-199.52228"
       y1="125.1125"
       x2="-112.89258"
       y2="106.76563" />
    <linearGradient
       inkscape:collect="always"
       xlink:href="#linearGradient5815"
       id="linearGradient7145"
       x1="-201.20084"
       y1="129.76476"
       x2="-128.98746"
       y2="76.73764"
       gradientUnits="userSpaceOnUse" />
    <linearGradient
       inkscape:collect="always"
       xlink:href="#linearGradient5815"
       id="linearGradient7499"
       gradientUnits="userSpaceOnUse"
       x1="-206.09961"
       y1="116.19655"
       x2="-112.30167"
       y2="116.19655" />
  </defs>
  <g
     inkscape:label="Calque 1"
     inkscape:groupmode="layer"
     id="layer1"
     transform="translate(208.9991,-95.95513)">
    <path
       style="color:#000000;fill:url(#linearGradient7145);fill-opacity:1;fill-rule:evenodd;stroke-width:2.2675;stroke-linecap:round;stroke-linejoin:round;-inkscape-stroke:none;paint-order:fill markers stroke"
       d="m -208.9991,100.4952 11.06639,1.3128 11.06638,-5.85287 11.06639,10.9611 11.06641,2.81819 11.06636,-9.67292 11.06641,7.2077 11.06639,-1.42596 11.06638,-7.724006 11.06639,5.152516 v 24.69899 h -99.5975 z"
       id="rect846"
       sodipodi:nodetypes="ccccccccccccc" />
    <path
       style="color:#000000;fill:#c3c3c3;fill-opacity:1;fill-rule:evenodd;stroke-width:2.2675;stroke-linecap:round;stroke-linejoin:round;-inkscape-stroke:none;paint-order:fill markers stroke"
       d="m -208.9991,101.02442 11.06639,5.54616 11.06638,-8.49875 11.06639,10.96109 11.06641,3.87651 11.06636,-11.2604 11.06641,7.20768 11.06639,1.74902 11.06638,-9.84063 11.06639,3.03586 v 24.69895 h -99.5975 z"
       id="rect846-6"
       sodipodi:nodetypes="ccccccccccccc" />
    <g
       id="g5629"
       style="fill:url(#linearGradient5817);fill-opacity:1">
      <path
         id="text4852"
         style="font-size:14.1111px;line-height:1.7;font-family:Sora;-inkscape-font-specification:'Sora, @wght=800';font-variation-settings:'wght' 800;letter-spacing:0px;word-spacing:0px;fill:url(#linearGradient7499);fill-opacity:1;stroke-width:0.264583"
         d="m -162.01562,114.4707 c -0.46097,0 -0.80548,0.1226 -1.03126,0.36719 -0.21637,0.23519 -0.32421,0.54167 -0.32421,0.91797 0,0.3763 0.10784,0.68705 0.32421,0.93164 0.22578,0.23519 0.57456,0.35156 1.04493,0.35156 0.46096,0 0.79925,-0.11637 1.01562,-0.35156 0.21637,-0.24459 0.32422,-0.55534 0.32422,-0.93164 0,-0.3763 -0.10785,-0.68278 -0.32422,-0.91797 -0.21637,-0.24459 -0.55892,-0.36719 -1.02929,-0.36719 z m -44.08399,0.59375 v 10.44141 h 2.3418 0.2832 1.29883 c 0.93133,0 1.7433,-0.13965 2.43945,-0.42188 0.70556,-0.29163 1.29526,-0.67842 1.76563,-1.1582 0.47037,-0.48918 0.82145,-1.03464 1.05664,-1.63672 0.23518,-0.61148 0.35351,-1.23298 0.35351,-1.86328 v -0.31055 c 0,-0.68674 -0.11833,-1.33578 -0.35351,-1.94726 -0.23519,-0.61148 -0.58627,-1.14646 -1.05664,-1.60742 -0.47037,-0.47037 -1.06007,-0.83816 -1.76563,-1.10157 -0.69615,-0.2634 -1.50812,-0.39453 -2.43945,-0.39453 h -1.29883 -0.2832 z m 27.26172,0.084 v 10.30078 h 2.56836 v -4.42969 -0.0703 c 0,-0.3763 0.11406,-0.67852 0.33984,-0.9043 0.22578,-0.23518 0.51752,-0.35156 0.875,-0.35156 0.35748,0 0.64301,0.11638 0.85938,0.35156 0.21637,0.22578 0.32617,0.51752 0.32617,0.875 v 4.5293 h 2.56836 v -4.42969 c 0,-1.18533 -0.22618,-2.08383 -0.67774,-2.69531 -0.44214,-0.61148 -1.08692,-0.91797 -1.93359,-0.91797 h -0.11328 c -0.56444,0 -1.04008,0.13734 -1.42578,0.41016 -0.35819,0.25968 -0.62212,0.65594 -0.81836,1.15429 v -3.82226 z m 9.52539,0.48047 -0.004,2.03125 h -1.13867 v 1.86328 h 1.13477 l -0.006,2.75195 c 0,0.81844 0.11211,1.46749 0.33789,1.94727 0.22578,0.47977 0.5893,0.82233 1.08789,1.02929 0.508,0.20697 1.18458,0.31055 2.03125,0.31055 h 1.05859 v -2.14453 h -1.07226 c -0.34808,0 -0.61654,-0.0888 -0.80469,-0.26758 -0.17874,-0.18815 -0.26758,-0.45661 -0.26758,-0.80469 l 0.006,-2.82226 h 2.13867 v -1.86328 h -2.13476 l 0.004,-2.03125 z m 28.22266,1.75 c -0.6303,0 -1.19477,0.11211 -1.69336,0.33789 -0.4986,0.21637 -0.92146,0.51237 -1.26953,0.88867 -0.33867,0.37629 -0.60287,0.80964 -0.79102,1.29883 -0.17874,0.47977 -0.26758,0.98295 -0.26758,1.50976 v 0.28321 c 0,0.508 0.0888,1.00069 0.26758,1.48046 0.18815,0.47978 0.45661,0.91313 0.80469,1.29883 0.34807,0.38571 0.7752,0.69219 1.2832,0.91797 0.508,0.22578 1.09148,0.33789 1.75,0.33789 0.66793,0 1.25567,-0.11833 1.76367,-0.35351 0.51741,-0.23519 0.94223,-0.55873 1.27149,-0.97266 0.33866,-0.41393 0.56289,-0.88529 0.67578,-1.41211 h -2.3418 c -0.0941,0.20696 -0.25895,0.37185 -0.49414,0.49414 -0.22578,0.1223 -0.51752,0.1836 -0.875,0.1836 -0.40452,0 -0.73233,-0.0846 -0.98633,-0.25391 -0.254,-0.16933 -0.44215,-0.40831 -0.56445,-0.71875 -0.0474,-0.12392 -0.0413,-0.29664 -0.0703,-0.4375 h 5.47461 v -0.81836 c 0,-0.72437 -0.15636,-1.39243 -0.4668,-2.00391 -0.31044,-0.62089 -0.75659,-1.11979 -1.33984,-1.49609 -0.58326,-0.3763 -1.29361,-0.56445 -2.13086,-0.56445 z m -12.93946,0.0273 c -0.57385,0 -1.05801,0.13734 -1.45312,0.41016 -0.39511,0.2634 -0.69734,0.66299 -0.9043,1.19921 -0.12304,0.32811 -0.13718,0.81048 -0.18359,1.24805 v -2.60351 h -2.03125 v 7.78906 h 2.56836 v -4.47266 c 0,-0.37629 0.0993,-0.68083 0.29687,-0.91601 0.20696,-0.2446 0.48822,-0.36719 0.84571,-0.36719 0.35748,0 0.63021,0.12259 0.81835,0.36719 0.19756,0.23518 0.29688,0.53119 0.29688,0.88867 v 4.5 h 2.56836 v -4.47266 c 0,-0.37629 0.0974,-0.68083 0.29492,-0.91601 0.20696,-0.2446 0.49018,-0.36719 0.84766,-0.36719 0.35748,0 0.63021,0.12259 0.81836,0.36719 0.19755,0.23518 0.29687,0.53119 0.29687,0.88867 v 4.5 h 2.56836 v -4.42969 c 0,-0.80904 -0.10785,-1.47709 -0.32422,-2.00391 -0.20696,-0.53622 -0.51345,-0.93581 -0.91797,-1.19921 -0.39511,-0.27282 -0.88353,-0.41016 -1.46679,-0.41016 h -0.11328 c -0.57386,0 -1.05802,0.13734 -1.45313,0.41016 -0.39511,0.2634 -0.69733,0.66299 -0.9043,1.19921 -0.004,0.0118 -0.002,0.033 -0.006,0.0449 -0.005,-0.012 -0.003,-0.0331 -0.008,-0.0449 -0.19755,-0.53622 -0.49356,-0.93581 -0.88867,-1.19921 -0.3857,-0.27282 -0.86987,-0.41016 -1.45313,-0.41016 z m -29.83203,0.0293 c -0.6397,0 -1.20844,0.0931 -1.70703,0.28125 -0.49859,0.18814 -0.8877,0.47136 -1.16992,0.84765 -0.28222,0.36689 -0.42383,0.83631 -0.42383,1.41016 0,0.66792 0.23471,1.22387 0.70508,1.66601 0.47037,0.44215 1.20399,0.71488 2.20117,0.81836 l 0.53711,0.0566 c 0.49859,0.047 0.84115,0.13588 1.0293,0.26758 0.18814,0.1223 0.2832,0.28292 0.2832,0.48047 0,0.22578 -0.1226,0.38871 -0.36719,0.49219 -0.23518,0.0941 -0.51839,0.14258 -0.84765,0.14258 -0.46097,0 -0.81827,-0.0846 -1.07227,-0.25391 -0.254,-0.16933 -0.39987,-0.37224 -0.4375,-0.60742 h -2.25781 c 0.047,0.84667 0.39581,1.50424 1.04492,1.97461 0.64911,0.46096 1.53713,0.6914 2.66602,0.6914 0.73377,0 1.36381,-0.10163 1.89062,-0.30859 0.53622,-0.20696 0.94629,-0.50492 1.22852,-0.89062 0.29163,-0.38571 0.4375,-0.84659 0.4375,-1.38282 0,-0.72437 -0.27273,-1.30785 -0.81836,-1.75 -0.53622,-0.45155 -1.3036,-0.72855 -2.30078,-0.83203 l -0.53516,-0.0566 c -0.3857,-0.047 -0.66892,-0.11686 -0.84766,-0.21094 -0.16933,-0.0941 -0.2539,-0.23994 -0.2539,-0.4375 0,-0.18814 0.0908,-0.33401 0.26953,-0.4375 0.18815,-0.10348 0.42712,-0.15625 0.71875,-0.15625 0.40452,0 0.71527,0.0865 0.93164,0.25586 0.21637,0.15993 0.34323,0.35662 0.38086,0.5918 h 2.25781 c -0.0376,-0.85607 -0.37592,-1.50938 -1.01562,-1.96094 -0.63971,-0.46096 -1.48313,-0.6914 -2.52735,-0.6914 z m -19.61328,0.084 h 1.41016 c 0.44214,0 0.83747,0.0613 1.18554,0.18359 0.35748,0.11289 0.65971,0.2863 0.9043,0.52149 0.24459,0.22578 0.43275,0.51325 0.56445,0.86133 0.13171,0.33866 0.19727,0.73399 0.19727,1.18554 0,0.43274 -0.0656,0.82381 -0.19727,1.17188 -0.1317,0.33867 -0.31986,0.63041 -0.56445,0.875 -0.24459,0.23518 -0.54682,0.41712 -0.9043,0.54883 -0.34807,0.12229 -0.7434,0.18359 -1.18554,0.18359 h -1.41016 z m 11.21875,0 c -0.28222,0 -0.59297,0.004 -0.93164,0.0137 -0.32926,0.009 -0.65049,0.0242 -0.96094,0.043 -0.31044,0.0188 -0.57695,0.0378 -0.80273,0.0566 v 2.14453 c 0.31985,-0.0188 0.67289,-0.0378 1.05859,-0.0566 0.38571,-0.0188 0.75154,-0.0336 1.09961,-0.043 0.34808,-0.009 0.61228,-0.0137 0.79102,-0.0137 0.37629,0 0.64476,0.0908 0.80468,0.26953 0.16341,0.16341 0.23842,0.42311 0.24415,0.76172 h -1.21876 c -0.70555,0 -1.33132,0.0846 -1.87695,0.25391 -0.54563,0.16933 -0.97276,0.4378 -1.2832,0.80469 -0.31045,0.35748 -0.4668,0.82689 -0.4668,1.41015 0,0.51741 0.11833,0.96355 0.35352,1.33985 0.24459,0.36688 0.57862,0.6501 1.00195,0.84765 0.42333,0.19756 0.9075,0.29688 1.45313,0.29688 0.54562,0 1.00225,-0.0993 1.36914,-0.29688 0.37629,-0.19755 0.66803,-0.48077 0.875,-0.84765 0.12332,-0.21447 0.15629,-0.51288 0.22461,-0.7793 v 1.72461 h 2.0332 v -4.72656 c 0,-0.72437 -0.15209,-1.32065 -0.45313,-1.79102 -0.29163,-0.47037 -0.71876,-0.82341 -1.2832,-1.05859 -0.55504,-0.23519 -1.23162,-0.35352 -2.03125,-0.35352 z m 28.20703,0.14063 v 1.86328 h 0.98828 v 5.92578 h 2.56836 v -5.92578 -1.86328 h -2.56836 z m 22.95899,1.77929 c 0.34807,0 0.63555,0.0784 0.86132,0.23828 0.23519,0.15993 0.4086,0.39659 0.52149,0.70704 0.0543,0.13364 0.0518,0.33268 0.082,0.49414 h -3 c 0.032,-0.1588 0.0271,-0.36476 0.082,-0.49414 0.1317,-0.31986 0.31986,-0.55652 0.56445,-0.70704 0.254,-0.15992 0.55001,-0.23828 0.88868,-0.23828 z m -51.08204,2.58203 h 1.22852 v 0.55079 c -0.0188,0.34807 -0.0863,0.6208 -0.19922,0.81835 -0.11289,0.19756 -0.25876,0.33721 -0.4375,0.42188 -0.16933,0.0753 -0.36602,0.11328 -0.5918,0.11328 -0.34807,0 -0.61653,-0.0846 -0.80468,-0.2539 -0.18815,-0.17875 -0.28125,-0.40919 -0.28125,-0.69141 0,-0.29163 0.0931,-0.52207 0.28125,-0.69141 0.18815,-0.17874 0.45661,-0.26758 0.80468,-0.26758 z" />
      <path
         style="color:#000000;fill:url(#linearGradient5914);fill-opacity:1;stroke-linecap:round;stroke-linejoin:round;-inkscape-stroke:none"
         d="m -112.89258,106.76563 a 1.04684,1.04684 0 0 0 -1.39844,0.48437 l -5.51367,11.38281 -3.32031,-3.74414 a 1.0469446,1.0469446 0 0 0 -1.7207,0.22852 l -4.51172,9.10351 a 1.04684,1.04684 0 0 0 0.47265,1.40235 1.04684,1.04684 0 0 0 1.40235,-0.47266 l 3.82226,-7.70898 3.33008,3.75586 a 1.0469446,1.0469446 0 0 0 1.72656,-0.23829 l 6.19727,-12.79492 a 1.04684,1.04684 0 0 0 -0.48633,-1.39843 z"
         id="path1763" />
    </g>
  </g>
</svg>
